<mxfile host="app.diagrams.net" modified="2021-02-05T09:56:55.076Z" agent="5.0 (Windows NT 10.0; Win64; x64) AppleWebKit/537.36 (KHTML, like Gecko) Chrome/88.0.4324.104 Safari/537.36" etag="u69H5Lrpsi_56NZWOLy6" version="14.2.9" type="github">
  <diagram id="rRWVe-ejs5-b0TVHX3YJ" name="Page-1">
    <mxGraphModel dx="942" dy="614" grid="1" gridSize="10" guides="1" tooltips="1" connect="1" arrows="1" fold="1" page="1" pageScale="1" pageWidth="827" pageHeight="1169" math="0" shadow="0">
      <root>
        <mxCell id="0" />
        <mxCell id="1" parent="0" />
        <mxCell id="TH-wG1BvgKt08hWVse3j-1" value="&lt;pre style=&quot;background-color: #ffffff ; color: #080808 ; font-family: &amp;#34;jetbrains mono&amp;#34; , monospace ; font-size: 9.8pt&quot;&gt;&lt;span style=&quot;color: #286d73&quot;&gt;rtmpOncreateStream&lt;/span&gt;&lt;/pre&gt;" style="rounded=1;whiteSpace=wrap;html=1;" parent="1" vertex="1">
          <mxGeometry x="140" y="362" width="140" height="40" as="geometry" />
        </mxCell>
        <mxCell id="TH-wG1BvgKt08hWVse3j-2" value="&lt;pre style=&quot;background-color: #ffffff ; color: #080808 ; font-family: &amp;#34;jetbrains mono&amp;#34; , monospace ; font-size: 9.8pt&quot;&gt;&lt;pre style=&quot;font-family: &amp;#34;jetbrains mono&amp;#34; , monospace ; font-size: 9.8pt&quot;&gt;&lt;span style=&quot;color: #36666b&quot;&gt;rtmpSendPublish&lt;/span&gt;&lt;/pre&gt;&lt;/pre&gt;" style="rounded=1;whiteSpace=wrap;html=1;" parent="1" vertex="1">
          <mxGeometry x="140" y="422" width="140" height="40" as="geometry" />
        </mxCell>
        <mxCell id="TH-wG1BvgKt08hWVse3j-3" value="&lt;span&gt;&amp;nbsp;&lt;/span&gt;publish(&#39;rfBd56ti2SMtYvSgD5xAV0YU99zampta7Z7S575KLkIZ9PYk&#39;)" style="rounded=0;whiteSpace=wrap;html=1;" parent="1" vertex="1">
          <mxGeometry x="150" y="492" width="120" height="60" as="geometry" />
        </mxCell>
        <mxCell id="TH-wG1BvgKt08hWVse3j-4" value="&lt;pre style=&quot;background-color: #ffffff ; color: #080808 ; font-family: &amp;#34;jetbrains mono&amp;#34; , monospace ; font-size: 9.8pt&quot;&gt;&lt;pre style=&quot;font-family: &amp;#34;jetbrains mono&amp;#34; , monospace ; font-size: 9.8pt&quot;&gt;&lt;span style=&quot;color: #286d73&quot;&gt;rtmpCommandOnresult&lt;/span&gt;&lt;/pre&gt;&lt;/pre&gt;" style="rounded=1;whiteSpace=wrap;html=1;" parent="1" vertex="1">
          <mxGeometry x="140" y="302" width="140" height="40" as="geometry" />
        </mxCell>
        <mxCell id="TH-wG1BvgKt08hWVse3j-5" value="&lt;pre style=&quot;background-color: #ffffff ; color: #080808 ; font-family: &amp;#34;jetbrains mono&amp;#34; , monospace ; font-size: 9.8pt&quot;&gt;&lt;pre style=&quot;font-family: &amp;#34;jetbrains mono&amp;#34; , monospace ; font-size: 9.8pt&quot;&gt;&lt;pre style=&quot;font-family: &amp;#34;jetbrains mono&amp;#34; , monospace ; font-size: 9.8pt&quot;&gt;&lt;span style=&quot;color: #286d73&quot;&gt;rtmpInvokeHandler&lt;/span&gt;&lt;/pre&gt;&lt;/pre&gt;&lt;/pre&gt;" style="rounded=1;whiteSpace=wrap;html=1;" parent="1" vertex="1">
          <mxGeometry x="140" y="240" width="140" height="40" as="geometry" />
        </mxCell>
        <mxCell id="TH-wG1BvgKt08hWVse3j-6" value="&lt;pre style=&quot;background-color: #ffffff ; color: #080808 ; font-family: &amp;#34;jetbrains mono&amp;#34; , monospace ; font-size: 9.8pt&quot;&gt;&lt;pre style=&quot;font-family: &amp;#34;jetbrains mono&amp;#34; , monospace ; font-size: 9.8pt&quot;&gt;&lt;pre style=&quot;font-family: &amp;#34;jetbrains mono&amp;#34; , monospace ; font-size: 9.8pt&quot;&gt;&lt;pre style=&quot;font-family: &amp;#34;jetbrains mono&amp;#34; , monospace ; font-size: 9.8pt&quot;&gt;&lt;span style=&quot;color: #286d73&quot;&gt;rtmpHandler&lt;/span&gt;&lt;/pre&gt;&lt;/pre&gt;&lt;/pre&gt;&lt;/pre&gt;" style="rounded=1;whiteSpace=wrap;html=1;" parent="1" vertex="1">
          <mxGeometry x="140" y="180" width="140" height="40" as="geometry" />
        </mxCell>
        <mxCell id="TH-wG1BvgKt08hWVse3j-7" value="&lt;pre style=&quot;background-color: #ffffff ; color: #080808 ; font-family: &amp;#34;jetbrains mono&amp;#34; , monospace ; font-size: 9.8pt&quot;&gt;&lt;pre style=&quot;font-family: &amp;#34;jetbrains mono&amp;#34; , monospace ; font-size: 9.8pt&quot;&gt;&lt;pre style=&quot;font-family: &amp;#34;jetbrains mono&amp;#34; , monospace ; font-size: 9.8pt&quot;&gt;&lt;pre style=&quot;font-family: &amp;#34;jetbrains mono&amp;#34; , monospace ; font-size: 9.8pt&quot;&gt;&lt;pre style=&quot;font-family: &amp;#34;jetbrains mono&amp;#34; , monospace ; font-size: 9.8pt&quot;&gt;&lt;span style=&quot;color: #286d73&quot;&gt;rtmpChunkRead&lt;/span&gt;&lt;/pre&gt;&lt;/pre&gt;&lt;/pre&gt;&lt;/pre&gt;&lt;/pre&gt;" style="rounded=1;whiteSpace=wrap;html=1;" parent="1" vertex="1">
          <mxGeometry x="140" y="120" width="140" height="40" as="geometry" />
        </mxCell>
        <mxCell id="TH-wG1BvgKt08hWVse3j-8" value="&lt;pre style=&quot;background-color: #ffffff ; color: #080808 ; font-family: &amp;#34;jetbrains mono&amp;#34; , monospace ; font-size: 9.8pt&quot;&gt;&lt;pre style=&quot;font-family: &amp;#34;jetbrains mono&amp;#34; , monospace ; font-size: 9.8pt&quot;&gt;&lt;pre style=&quot;font-family: &amp;#34;jetbrains mono&amp;#34; , monospace ; font-size: 9.8pt&quot;&gt;&lt;pre style=&quot;font-family: &amp;#34;jetbrains mono&amp;#34; , monospace ; font-size: 9.8pt&quot;&gt;&lt;pre style=&quot;font-family: &amp;#34;jetbrains mono&amp;#34; , monospace ; font-size: 9.8pt&quot;&gt;&lt;pre style=&quot;font-family: &amp;#34;jetbrains mono&amp;#34; , monospace ; font-size: 9.8pt&quot;&gt;&lt;span style=&quot;color: #286d73&quot;&gt;onSocketData&lt;/span&gt;&lt;/pre&gt;&lt;/pre&gt;&lt;/pre&gt;&lt;/pre&gt;&lt;/pre&gt;&lt;/pre&gt;" style="rounded=1;whiteSpace=wrap;html=1;" parent="1" vertex="1">
          <mxGeometry x="140" y="50" width="140" height="40" as="geometry" />
        </mxCell>
        <mxCell id="6kCMPRDJTBIbW3up2iVt-1" value="&lt;pre style=&quot;background-color: #ffffff ; color: #080808 ; font-family: &amp;#34;jetbrains mono&amp;#34; , monospace ; font-size: 9.8pt&quot;&gt;&lt;span style=&quot;color: #286d73&quot;&gt;rtmpCommandOnresult&lt;/span&gt;&lt;/pre&gt;" style="rounded=0;whiteSpace=wrap;html=1;" vertex="1" parent="1">
          <mxGeometry x="500" y="50" width="140" height="30" as="geometry" />
        </mxCell>
        <mxCell id="6kCMPRDJTBIbW3up2iVt-3" value="返回的transId导致推流失败" style="text;html=1;strokeColor=none;fillColor=none;align=center;verticalAlign=middle;whiteSpace=wrap;rounded=0;" vertex="1" parent="1">
          <mxGeometry x="500" y="90" width="150" height="20" as="geometry" />
        </mxCell>
      </root>
    </mxGraphModel>
  </diagram>
</mxfile>
